HIERARCHY
ROOT Hips
{
  OFFSET 0.0 0.0 0.0
  CHANNELS 6 XPOSITION YPOSITION ZPOSITION ZROTATION XROTATION YROTATION 
  JOINT LeftUpLeg
  {
    OFFSET 0.089458 -0.0866707 0.00101652
    CHANNELS 3 ZROTATION XROTATION YROTATION 
    JOINT LeftLeg
    {
      OFFSET 0.0 -0.444227 0.013727
      CHANNELS 3 ZROTATION XROTATION YROTATION 
      JOINT LeftFoot
      {
        OFFSET -0.00253549 -0.420924 -0.0146059
        CHANNELS 3 ZROTATION XROTATION YROTATION 
        End Site
        {
          OFFSET -0.0004 -0.0441509 0.084991
        }
      }
    }
  }
  JOINT Spine
  {
    OFFSET 0.0 0.118905 0.0
    CHANNELS 3 ZROTATION XROTATION YROTATION 
    JOINT Spine1
    {
      OFFSET 0.0 0.256574 0.00127663
      CHANNELS 3 ZROTATION XROTATION YROTATION 
      End Site
      {
        OFFSET -0.0029 0.2150836 0.02525291
      }
      JOINT RightArm
      {
        OFFSET -0.162727 -0.05365632 0.00102123
        CHANNELS 3 ZROTATION XROTATION YROTATION 
        JOINT RightForeArm
        {
          OFFSET -0.26364 0.00099144 -0.0142434
          CHANNELS 3 ZROTATION XROTATION YROTATION 
          End Site
          {
            OFFSET -0.220324 0.00085362 0.0102216
          }
        }
      }
      JOINT LeftArm
      {
        OFFSET 0.162727 -0.0536563199 0.00102123
        CHANNELS 3 ZROTATION XROTATION YROTATION 
        JOINT LeftForeArm
        {
          OFFSET 0.262597 0.00099144 -0.0142434
          CHANNELS 3 ZROTATION XROTATION YROTATION 
          End Site
          {
            OFFSET 0.220902 0.00085362 0.0102216
          }
        }
      }
    }
  }
  JOINT RightUpLeg
  {
    OFFSET -0.089458 -0.0866707 0.00101652
    CHANNELS 3 ZROTATION XROTATION YROTATION 
    JOINT RightLeg
    {
      OFFSET 0.0 -0.444227 0.013727
      CHANNELS 3 ZROTATION XROTATION YROTATION 
      JOINT RightFoot
      {
        OFFSET 0.00253549 -0.420924 -0.0146059
        CHANNELS 3 ZROTATION XROTATION YROTATION 
        End Site
        {
          OFFSET 0.0004 -0.0441509 0.084991
        }
      }
    }
  }
}
MOTION
Frames: 18
Frame Time: 0.033333
1.91206 0.989606225114 0.0416319 -5.04511026581 -0.434587034322 -90.7360988215 -1.72399001243 4.37904985474 2.46188000119 -0.222620998012 7.76782985531 22.8084997804 -1.3892340102 -34.3659123938 0.0109380426952 0.821456019224 8.08854053401 -0.198973002136 -2.07806990049 -0.882691973506 0.287450005324 78.2428700371 -17.9049806167 5.11292934851 8.01411025508 37.5198990921 8.37193959683 -73.0931806104 -10.7439336682 -1.42094946 -5.96494037907 36.5842997796 -12.5149001209 -0.27149201538 3.71850012567 -4.02337031503 -0.0736215018259 10.4734001205 -10.6755993331 2.29881649183 -36.2671809266 -0.110219976596 
1.91199 0.989606225114 0.0417323 -5.03304985928 -0.430420005278 -90.7348967082 -1.72618997368 4.38141011199 2.4610599516 -0.228639008321 7.74122029208 22.823200055 -1.3892340102 -34.3659123938 0.0109380426952 0.75504897141 7.98783963999 -0.191880997941 -1.94735993002 -0.740784014607 0.271023000164 78.2990688335 -18.0852668749 5.24424741927 8.05570013071 37.7064998603 8.24293013001 -73.1443865386 -10.7106783309 -1.4715717272 -5.85055989679 36.6938013724 -12.6295004499 -0.284192992266 3.70484017422 -4.03729024056 -0.062912498919 10.4845000316 -10.6584999545 2.3595691035 -36.276978833 -0.110233923789 
1.91189 0.989606225114 0.0419274 -5.00730004611 -0.435539018618 -90.724596783 -1.74900003074 4.35689997815 2.42603986418 -0.21819000617 7.73761992861 22.8600984444 -1.38827404845 -34.3664109976 0.0109381002249 0.597047966249 7.75016015593 -0.168480009452 -1.65671990619 -0.413598023085 0.243302010406 78.3710248765 -18.240704905 5.44275235334 8.08163009012 37.8207006232 8.15074989697 -73.2515522067 -10.6883769095 -1.61165389116 -5.73121941652 36.8539010065 -12.7400001041 -0.31339599967 3.66284987875 -4.0688499834 -0.0481946985727 10.5325000398 -10.6279997448 2.39068445715 -36.3098798542 -0.110280334391 
1.9118 0.989606225114 0.042179 -4.98624001158 -0.46936601073 -90.7343024818 -1.81192005354 4.34176982848 2.36625991413 -0.206332997874 7.72779043262 22.9346994781 -1.37466404276 -34.3650108088 0.010937923467 0.421055015513 7.53313004128 -0.127078004045 -1.37085002244 -0.115185003854 0.234589010223 78.4073205017 -18.1747116172 5.55632858084 8.06379048978 37.701401124 8.20624006134 -73.3491351194 -10.5922872469 -1.73636460766 -5.69859032219 36.87280014 -12.7858007913 -0.383715011651 3.59796009343 -4.13217010587 -0.0346212984229 10.6299002449 -10.5336995918 2.37584288297 -36.3652761035 -0.110358828205 
1.91176 0.989606225114 0.0424448 -4.97886981058 -0.515846995497 -90.7697033522 -1.88294014709 4.35631983896 2.32704011414 -0.217215997182 7.69002973179 23.0113000497 -1.33116502253 -34.3518114683 0.0109362000782 0.310340023625 7.44222022342 -0.0911041980997 -1.2242400119 0.0165578993324 0.244318988221 78.4300103901 -18.0386679093 5.6006518128 8.06247994724 37.6103990986 8.24955968238 -73.4020964062 -10.3941366289 -1.76806863824 -5.69255969204 36.69660175 -12.8458996258 -0.473862996607 3.54561992693 -4.20769961837 -0.0194597992498 10.7166991427 -10.3995999265 2.35333057947 -36.4082789745 -0.11041983967 
1.91177 0.989616225114 0.0426775 -4.97965015969 -0.532879993183 -90.7547998795 -1.90829999914 4.36303007293 2.3251297956 -0.234990977527 7.67878041023 23.0026000962 -1.29664578008 -34.3408114486 0.0109347626703 0.288582989633 7.4174992075 -0.0983341000785 -1.19791998466 0.0645837008006 0.231232986102 78.4747276386 -18.0434780701 5.66679323029 8.11780960215 37.6822014623 8.15640956248 -73.4300113894 -10.1909034964 -1.75702849122 -5.65197940375 36.4033988044 -12.9651999788 -0.513535990319 3.55660009635 -4.24079999575 -0.00907430985381 10.6985999951 -10.3686992969 2.33523719492 -36.3992802003 -0.110407099767 
1.91173 0.989626225114 0.0428565 -4.98228960092 -0.511962965736 -90.6324985122 -1.88070987688 4.33931949811 2.337699905 -0.232554014056 7.72478002674 22.8730997095 -1.29580545337 -34.3455106188 0.0109353721513 0.314331015215 7.37083962395 -0.152134006067 -1.1893099976 0.142916999287 0.174915995322 78.532401756 -18.1429563602 5.73985917893 8.17814920083 37.6632989138 8.05181033798 -73.4580288253 -10.0702447896 -1.77818468201 -5.60913021199 36.1174017083 -13.0778998076 -0.476750992687 3.63659036271 -4.21334989236 -0.0132870999975 10.5738995239 -10.5148004583 2.33264471124 -36.3496793665 -0.110336636761 
1.91162 0.989626225114 0.0429942 -4.98424004681 -0.478348990149 -90.4734985385 -1.83696016737 4.31531992092 2.3510700003 -0.222963988235 7.77165988389 22.6996999895 -1.28922403249 -34.3656118655 0.0109380018408 0.34496798882 7.31918034194 -0.208656009244 -1.16727996949 0.213474000672 0.114646993055 78.5815176463 -18.1900317315 5.73976483695 8.17709052151 37.4337977275 8.08171034484 -73.4789633551 -10.0406017686 -1.82264515808 -5.61193955418 35.9826010949 -13.1030997905 -0.418600976569 3.72339011423 -4.17266971255 -0.0210651004781 10.449299798 -10.7118001895 2.36167514965 -36.3089748542 -0.110279107091 
1.91155 0.989636225114 0.0431233 -4.97948025873 -0.454143013174 -90.3934009101 -1.80142995019 4.30864981431 2.37515986406 -0.236780994018 7.77408033217 22.591200727 -1.24344223498 -34.3928130939 0.0109415478362 0.387362012503 7.29867013764 -0.229169975488 -1.18986996639 0.21553599743 0.0993755038238 78.6377437635 -18.244514443 5.69495025825 8.13229984848 37.3363001921 8.1516497744 -73.4763473927 -10.105985462 -1.84741142402 -5.64621002834 36.1174017083 -13.0324005025 -0.395177990069 3.75404016125 -4.16518980164 -0.00818071983991 10.4016003181 -10.7939007709 2.39669481018 -36.2962775325 -0.110261051112 
1.9116 0.989636225114 0.0432725 -4.96381009723 -0.434864003829 -90.4077989489 -1.77569006214 4.29107018804 2.40484002421 -0.266270015594 7.76969022808 22.5765004524 -1.20160060285 -34.4167119258 0.0109446844539 0.464259964078 7.26495034748 -0.216013003434 -1.27934000171 0.231089018521 0.130835995471 78.714269203 -18.4531852599 5.71372089875 8.09783983657 37.616296967 8.10941017702 -73.4690527506 -10.310472788 -1.89306291432 -5.69597990927 36.5076001703 -12.8821004822 -0.39935801248 3.73020023972 -4.17811977662 0.0205098991465 10.4049001533 -10.7640998017 2.39419111896 -36.2877773621 -0.110249064931 
1.91175 0.989646225114 0.0434385 -4.95036999249 -0.419947991259 -90.4357002716 -1.76528000007 4.25528981519 2.41641996962 -0.280054991526 7.7960607347 22.5985004917 -1.21323988552 -34.4293102097 0.0109463311364 0.55396099853 7.18486979455 -0.187967993238 -1.36081007124 0.360246001415 0.177465990419 78.7741221507 -18.7343482895 5.79842847795 8.06382976337 37.9685025017 8.03527018113 -73.5010453567 -10.663491969 -2.04258962908 -5.79416003661 36.9941008845 -12.6456000596 -0.401150990498 3.69720999915 -4.17643997698 0.0305527001427 10.4180004561 -10.7414005218 2.37147220224 -36.2729763422 -0.110228167487 
1.91189 0.989656225114 0.0435892 -4.96190020558 -0.420030994066 -90.4218008367 -1.77299000298 4.24218993925 2.40993000924 -0.27633200482 7.82774000584 22.5942008876 -1.24397957877 -34.4332136628 0.0109468322282 0.610518006426 7.12508002611 -0.155856005597 -1.3683300028 0.536965993771 0.215929000111 78.7728653959 -18.854525468 5.83351772104 7.9694800915 38.0056006742 8.1280002444 -73.5737800412 -11.0388714819 -2.26539637622 -5.94207973592 37.3674014585 -12.3722994314 -0.401418995382 3.6866599182 -4.16122999947 0.0102450002755 10.4480003545 -10.7756001327 2.37641213655 -36.2730753799 -0.1102283876 
1.91201 0.989656225114 0.043706 -4.99834011858 -0.425311984274 -90.3870010229 -1.78180009324 4.26255030628 2.4103398206 -0.276606999975 7.84704041289 22.5584004511 -1.23449916948 -34.4381109084 0.0109474858986 0.63265299534 7.14152029144 -0.133625994345 -1.3501100463 0.627561996448 0.238727010962 78.7309075438 -18.7661838012 5.77469100927 7.81884026935 37.8424991719 8.37511990366 -73.617677667 -11.1958719177 -2.41212356719 -6.04891968935 37.4357989729 -12.2229009962 -0.399366977104 3.69747040011 -4.15523992357 -0.0111734999599 10.494199754 -10.8204001973 2.39211794311 -36.2918754756 -0.110254914614 
1.91218 0.989656225114 0.0438022 -5.02882965615 -0.420952989563 -90.3701031348 -1.77897997216 4.26571994094 2.42248987335 -0.283612986475 7.88288012301 22.5339005625 -1.20218885289 -34.4429125314 0.0109481070523 0.656412021811 7.17539034576 -0.136658998543 -1.39385004414 0.626754006414 0.245333004509 78.7066330515 -18.6675217187 5.71213458732 7.70314967142 37.858099324 8.54628017539 -73.5718744184 -10.9922101908 -2.38261181389 -6.03563027566 37.1191001765 -12.316699984 -0.3971720051 3.70775026169 -4.15861019503 -0.0115261001381 10.5200007936 -10.8377002127 2.36999239906 -36.2993784384 -0.110265460053 
1.91242 0.989666225114 0.043886 -5.02819017969 -0.413389008624 -90.3818988715 -1.77782001394 4.22526003473 2.42566996674 -0.28553400386 7.93422009368 22.5530011865 -1.20398946151 -34.4365126442 0.0109472674526 0.68210601953 7.15802032093 -0.155127002965 -1.48131008285 0.617185018108 0.242766000639 78.720081694 -18.715336458 5.73071697073 7.70402991205 38.0780997171 8.49760995492 -73.4785672042 -10.603074677 -2.23788907 -5.94025009899 36.6049986679 -12.5602004968 -0.398227002523 3.69250997522 -4.15454025606 -0.00655033984455 10.5172004161 -10.8325007312 2.33075637738 -36.2804758899 -0.110238832987 
1.91263 0.989666225114 0.0439433 -5.0055899375 -0.417186006833 -90.4132016285 -1.78939003423 4.17994002204 2.41465991525 -0.285540994131 7.95543978388 22.597499869 -1.2414200721 -34.4250140207 0.0109457691799 0.670090062594 7.12910001932 -0.159462011974 -1.50432002967 0.614505022633 0.240121997059 78.7364468272 -18.8182622861 5.78519370578 7.80422964094 38.1298998718 8.33692036318 -73.4331327858 -10.3642793107 -2.10625894497 -5.84712004277 36.2807012861 -12.7515994728 -0.405321994925 3.64609030208 -4.14280983305 -0.0142742999551 10.526000261 -10.8127999043 2.33120098 -36.2613786809 -0.110211779035 
1.91278 0.989676225114 0.0439738 -4.98435018361 -0.426714014004 -90.4464988007 -1.80035995837 4.15304999416 2.40720006801 -0.292516991832 7.95488995366 22.6288999561 -1.276019676 -34.4315095306 0.0109466171172 0.604781981545 7.15916992714 -0.140370992913 -1.4047099382 0.581830037974 0.237862004856 78.7190435052 -18.8126068895 5.78316642025 7.90054982239 37.8278006048 8.26518971652 -73.4713340338 -10.3621713436 -2.04177619624 -5.77576975227 36.3110000053 -12.8277996245 -0.419387008613 3.59170961656 -4.13765987042 -0.0227200006191 10.5607001833 -10.7798997368 2.36439740692 -36.2659753983 -0.11021834909 
1.91288 0.989686225114 0.0439939 -4.97234014973 -0.428781000001 -90.4672967267 -1.80097019308 4.11354972953 2.40915990542 -0.299211991281 8.00005031067 22.6445991459 -1.29835812985 -34.4551112493 0.0109497045428 0.518669998058 7.235199751 -0.118129002149 -1.24261001912 0.532230965129 0.225438024158 78.6762933512 -18.7090885424 5.72089088983 7.90955969568 37.5017990908 8.33188053735 -73.5441984919 -10.370679198 -2.00984548875 -5.69990001097 36.4288993156 -12.8908004357 -0.43126097232 3.55875993023 -4.14105020556 -0.0175061000104 10.5814998169 -10.7454994891 2.38760809726 -36.278276569 -0.110235644676 
